<?xml version="1.0" standalone="no"?>
<!DOCTYPE svg PUBLIC "-//W3C//DTD SVG 20010904//EN"
 "http://www.w3.org/TR/2001/REC-SVG-20010904/DTD/svg10.dtd">
<svg version="1.0" xmlns="http://www.w3.org/2000/svg"
 width="200.000000pt" height="200.000000pt" viewBox="0 0 200.000000 200.000000"
 preserveAspectRatio="xMidYMid meet">
<metadata>
Created by potrace 1.16, written by Peter Selinger 2001-2019
</metadata>
<g transform="translate(0.000000,200.000000) scale(0.100000,-0.100000)"
fill="#000000" stroke="none">
<path d="M356 1873 c18 -81 106 -228 129 -219 9 3 12 0 9 -8 -3 -7 5 -21 17
-32 14 -12 23 -15 26 -8 2 6 10 20 18 30 13 18 18 15 89 -56 90 -88 87 -94
-43 -88 -75 3 -93 7 -129 31 -43 28 -72 35 -72 17 0 -21 93 -110 137 -131 40
-19 52 -20 127 -12 63 6 86 5 95 -4 6 -7 30 -18 54 -24 53 -16 49 -12 41 -43
-8 -33 -24 -34 -24 -2 0 14 -4 27 -9 31 -12 7 -24 -31 -23 -72 1 -24 -3 -33
-14 -33 -13 0 -15 -15 -13 -94 2 -64 -1 -99 -9 -109 -9 -10 -38 -16 -92 -19
l-79 -3 -61 -60 c-56 -55 -59 -61 -43 -73 16 -12 14 -13 -15 -7 -23 5 -34 3
-38 -8 -3 -8 -23 -23 -44 -33 -22 -11 -40 -22 -40 -26 0 -11 45 -39 85 -52 35
-12 35 -13 15 -31 -24 -22 -26 -55 -3 -55 9 0 27 9 39 21 l22 21 6 -29 c8 -34
42 -93 54 -93 5 0 14 12 21 28 7 15 14 28 14 30 1 2 23 26 50 55 26 28 47 57
47 65 0 7 4 11 9 8 5 -3 23 10 40 29 28 33 31 42 31 107 0 51 4 76 16 89 15
17 18 14 47 -42 17 -32 34 -59 38 -59 4 0 9 15 11 33 2 17 2 -33 0 -113 -4
-143 -4 -145 20 -167 13 -13 38 -26 55 -29 29 -6 32 -4 36 22 l4 29 2 -27 c1
-34 22 -36 69 -8 l32 20 0 132 c0 76 4 127 9 120 10 -17 61 65 61 99 l0 22 25
-23 c22 -21 25 -32 25 -96 0 -68 2 -76 31 -109 17 -19 35 -32 40 -29 5 3 9 0
9 -6 0 -7 23 -40 51 -74 29 -33 56 -71 62 -83 6 -13 14 -23 19 -23 12 0 46 59
54 93 l6 29 22 -21 c12 -12 30 -21 39 -21 23 0 21 33 -3 55 -20 18 -20 19 15
31 40 13 85 41 85 52 0 4 -18 15 -40 26 -21 10 -41 25 -44 33 -4 11 -15 13
-38 8 -29 -6 -31 -5 -15 7 16 12 13 18 -43 73 l-61 60 -79 3 c-105 5 -111 12
-114 134 -3 114 -22 199 -42 191 -8 -3 -14 -10 -13 -17 3 -23 -1 -36 -11 -36
-5 0 -10 14 -10 30 0 20 5 30 15 30 9 0 34 9 55 20 36 19 40 24 40 60 0 21 5
42 10 45 6 4 10 -11 10 -38 l0 -44 80 -7 c64 -6 86 -4 115 10 46 22 135 105
135 127 0 23 -5 22 -74 -13 -51 -26 -69 -30 -135 -29 -122 1 -123 3 -36 89 72
71 77 74 90 56 8 -10 16 -24 18 -30 3 -7 12 -4 25 7 11 11 18 25 15 33 -3 10
0 12 10 8 28 -10 127 160 127 219 0 23 -4 27 -27 27 -30 0 -154 -59 -197 -95
-24 -19 -27 -26 -18 -38 10 -12 8 -13 -11 -10 -24 5 -62 -27 -41 -34 6 -2 20
-10 30 -18 18 -13 14 -19 -66 -98 l-85 -85 -65 8 c-40 5 -84 5 -113 -2 -33 -7
-68 -7 -110 0 -36 6 -85 7 -117 2 l-55 -8 -85 84 c-80 80 -84 86 -66 99 10 8
24 16 30 18 21 7 -17 39 -41 34 -19 -3 -21 -2 -11 10 9 12 6 19 -18 38 -46 38
-168 95 -202 95 -30 0 -32 -2 -26 -27z m658 -628 c4 -85 4 -212 0 -282 -6
-108 -4 -130 8 -141 13 -10 17 -7 24 20 8 31 8 30 12 -19 2 -33 -2 -62 -12
-80 l-15 -28 -7 33 c-8 41 -29 41 -44 0 l-11 -33 -16 38 c-12 29 -13 47 -5 85
l10 47 1 -39 c1 -38 2 -39 20 -22 18 17 19 31 14 297 -4 183 -3 279 4 279 6 0
13 -63 17 -155z"/>
<path d="M845 434 c-20 -12 -30 -13 -33 -5 -2 6 -8 11 -13 11 -5 0 -9 -36 -9
-81 0 -88 13 -101 35 -35 28 80 108 126 135 77 38 -73 -26 -182 -142 -242 -25
-13 -38 -26 -38 -39 0 -19 7 -20 165 -20 l165 0 0 60 c0 33 -4 60 -10 60 -5 0
-10 -9 -10 -20 0 -15 -14 -24 -66 -40 -37 -11 -92 -23 -123 -26 l-56 -6 92 47
c167 85 218 183 130 249 -38 28 -177 35 -222 10z"/>
<path d="M290 426 c0 -8 10 -16 22 -18 14 -2 42 -32 80 -87 48 -69 58 -91 58
-126 0 -48 -13 -65 -52 -65 -18 0 -28 -5 -28 -15 0 -13 24 -15 155 -15 131 0
155 2 155 15 0 10 -10 15 -34 15 -39 0 -46 11 -46 79 0 45 3 49 78 124 42 42
83 77 90 77 6 0 12 7 12 15 0 12 -18 15 -100 15 -80 0 -100 -3 -100 -14 0 -8
10 -16 23 -18 29 -4 34 -47 9 -78 l-19 -24 -29 43 c-26 40 -27 44 -11 56 40
29 19 35 -123 35 -115 0 -140 -3 -140 -14z"/>
<path d="M1150 425 c0 -10 10 -15 30 -15 41 0 50 -27 50 -140 0 -113 -9 -140
-50 -140 -20 0 -30 -5 -30 -15 0 -13 23 -15 145 -15 122 0 145 2 145 15 0 9
-9 15 -25 15 -30 0 -48 36 -43 84 5 56 32 43 79 -38 l44 -76 108 0 c86 0 107
3 107 14 0 8 -12 16 -27 18 -23 2 -36 19 -81 96 -29 52 -51 100 -48 108 9 23
97 74 128 74 18 0 28 5 28 15 0 12 -19 15 -110 15 -91 0 -110 -3 -110 -15 0
-8 8 -15 18 -15 51 0 29 -39 -50 -91 -67 -43 -88 -40 -88 12 0 53 17 79 50 79
20 0 30 5 30 15 0 13 -23 15 -150 15 -127 0 -150 -2 -150 -15z"/>
</g>
</svg>
